<svg width="20" height="25" viewBox="0 0 20 25" fill="none" xmlns="http://www.w3.org/2000/svg">
<path fill-rule="evenodd" clip-rule="evenodd" d="M16.7578 24.5H4.23535C1.97168 24.5 0.833984 23.4248 0.833984 21.2944V9.56836C0.833984 7.42822 1.97168 6.36279 4.23535 6.36279H16.4326C18.6856 6.36279 19.834 7.43848 19.834 9.56836V21.2944C19.834 23.4248 18.6963 24.5 16.7578 24.5ZM17.4619 4.69824H3.19531C3.35839 3.75732 3.82324 3.24023 4.90722 3.24023H15.75C16.833 3.24023 17.2988 3.75732 17.4619 4.69824ZM15.5879 1.83398H5.08007C5.1455 0.955078 5.66503 0.5 6.6621 0.5H13.9951C14.9922 0.5 15.5225 0.955078 15.5879 1.83398ZM11.6709 14.3921H11.7041C12.9522 14.3921 13.9678 15.4092 13.9678 16.6592C13.9678 17.3784 13.6162 18.0532 12.9776 18.5596C12.7119 18.77 12.4102 18.9404 12.084 19.0679C12.2383 19.6045 12.3194 20.0884 12.3213 20.5073C12.3213 21.1406 12.1494 21.6396 11.8106 21.9897C11.4883 22.3237 11.0244 22.5 10.4688 22.5C9.37109 22.5 8.63378 21.6924 8.63378 20.7305C8.63378 20.1982 9.01074 19.8203 9.45703 19.8203C9.9121 19.8203 10.2803 20.1895 10.2803 20.6445C10.2803 20.8643 10.1943 21.064 10.0547 21.2119C9.98242 21.2881 9.8955 21.3506 9.79882 21.395C9.69921 21.4404 9.68847 21.5776 9.78125 21.6367C9.96289 21.7524 10.1934 21.813 10.4688 21.813C11.2432 21.813 11.6348 21.3735 11.6348 20.5073C11.6328 20.1519 11.5615 19.7329 11.4248 19.2598C11.1602 19.312 10.8858 19.3394 10.6065 19.3394L10.3994 19.3345C9.44921 19.2891 8.57421 18.9141 7.93554 18.2788C7.61621 17.9614 7.37109 17.5928 7.20703 17.1904C7.03515 16.7676 6.95312 16.3076 6.96972 15.8325C6.99902 15.0103 7.27246 14.3228 7.80664 13.731C7.99902 13.5171 8.21582 13.3257 8.44531 13.1484C8.71386 12.9409 9 12.7524 9.28515 12.5703C9.20605 12.1987 9.16503 11.8193 9.16503 11.437C9.16503 9.82227 10.1777 8.73438 11.4834 8.51416C11.4932 8.5127 11.5508 8.50195 11.6152 8.5C11.6592 8.49902 11.7061 8.50195 11.7422 8.51465C11.8057 8.53711 11.8565 8.57129 11.8936 8.61768C11.9287 8.66113 11.9531 8.71582 11.9668 8.78174C11.9844 8.87061 12.001 8.97705 12.0147 9.09473C12.0342 9.2627 12.0469 9.4541 12.0469 9.65088C12.0469 10.542 11.7236 12.2305 10.2998 13.5615L10.6572 14.646C10.9619 14.4888 11.3067 14.3975 11.6709 14.3921ZM11.6152 10.1094C11.6367 9.97363 11.5205 9.85498 11.3848 9.87256C10.4863 9.98828 9.85156 10.7119 9.85156 11.437C9.85156 11.6816 9.87011 11.9253 9.90722 12.1655C10.7061 11.6187 11.4805 10.939 11.6152 10.1094ZM8.59863 16.7969C8.59863 17.3618 8.79394 17.8911 9.14941 18.2871C9.51953 18.6997 10.0371 18.9268 10.6065 18.9268C10.8506 18.9268 11.083 18.8984 11.2969 18.8442C11.1074 18.2427 10.8594 17.4756 10.6026 16.6865C10.3486 16.8511 10.1191 17.1157 9.99316 17.3701C9.92675 17.5059 9.83496 17.5493 9.75097 17.5381C9.667 17.5269 9.59668 17.4868 9.55957 17.3809C9.46777 17.1265 9.44043 16.8643 9.44043 16.6099C9.4414 16.0166 9.68359 15.4751 10.0762 15.0752L9.74804 14.0781C9.07812 14.7656 8.59863 15.5806 8.59863 16.7969ZM11.9297 18.5679L11.9395 18.5615C12.2715 18.3281 12.4502 18.0122 12.458 17.646C12.4639 17.3618 12.3672 17.0835 12.1826 16.8667C11.957 16.6011 11.6358 16.4531 11.292 16.4531L11.249 16.4541C11.499 17.2222 11.7402 17.9707 11.9297 18.5679Z" fill="#3C3C43" fill-opacity="0.6"/>
</svg>
